<svg width="20" height="20" viewBox="0 0 20 20" fill="none" xmlns="http://www.w3.org/2000/svg">
<path d="M6.66821 5.83317C6.6783 4.02065 6.75868 3.03906 7.399 2.39874C8.13123 1.6665 9.30974 1.6665 11.6668 1.6665H12.5001C14.8571 1.6665 16.0356 1.6665 16.7679 2.39874C17.5001 3.13097 17.5001 4.30948 17.5001 6.6665V13.3332C17.5001 15.6902 17.5001 16.8687 16.7679 17.6009C16.0356 18.3332 14.8571 18.3332 12.5001 18.3332H11.6668C9.30974 18.3332 8.13123 18.3332 7.399 17.6009C6.75868 16.9606 6.6783 15.979 6.66821 14.1665" stroke="#197DDC" stroke-width="1.5" stroke-linecap="round"/>
<path d="M6.66667 16.25C4.70248 16.25 3.72039 16.25 3.11019 15.6398C2.5 15.0296 2.5 14.0475 2.5 12.0833V7.91667C2.5 5.95248 2.5 4.97039 3.11019 4.36019C3.72039 3.75 4.70248 3.75 6.66667 3.75" stroke="#197DDC" stroke-width="1.5"/>
<path d="M12.5 10.0002L5 10.0002M5 10.0002L6.66667 11.6668M5 10.0002L6.66667 8.3335" stroke="#197DDC" stroke-width="1.5" stroke-linecap="round" stroke-linejoin="round"/>
</svg>
