<svg width="16" height="16" viewBox="0 0 16 16" fill="none" xmlns="http://www.w3.org/2000/svg">
<path d="M1.33325 7.99984C1.33325 5.48568 1.33325 4.2286 2.1143 3.44755C2.89535 2.6665 4.15243 2.6665 6.66659 2.6665H9.33325C11.8474 2.6665 13.1045 2.6665 13.8855 3.44755C14.6666 4.2286 14.6666 5.48568 14.6666 7.99984V9.33317C14.6666 11.8473 14.6666 13.1044 13.8855 13.8855C13.1045 14.6665 11.8474 14.6665 9.33325 14.6665H6.66659C4.15243 14.6665 2.89535 14.6665 2.1143 13.8855C1.33325 13.1044 1.33325 11.8473 1.33325 9.33317V7.99984Z" stroke="#197DDC"/>
<path d="M4.66675 2.6665V1.6665" stroke="#197DDC" stroke-linecap="round"/>
<path d="M11.3333 2.6665V1.6665" stroke="#197DDC" stroke-linecap="round"/>
<path d="M1.66675 6H14.3334" stroke="#197DDC" stroke-linecap="round"/>
<path d="M12.0001 11.3333C12.0001 11.7015 11.7016 12 11.3334 12C10.9652 12 10.6667 11.7015 10.6667 11.3333C10.6667 10.9651 10.9652 10.6667 11.3334 10.6667C11.7016 10.6667 12.0001 10.9651 12.0001 11.3333Z" fill="#197DDC"/>
<path d="M12.0001 8.66667C12.0001 9.03486 11.7016 9.33333 11.3334 9.33333C10.9652 9.33333 10.6667 9.03486 10.6667 8.66667C10.6667 8.29848 10.9652 8 11.3334 8C11.7016 8 12.0001 8.29848 12.0001 8.66667Z" fill="#197DDC"/>
<path d="M8.66659 11.3333C8.66659 11.7015 8.36811 12 7.99992 12C7.63173 12 7.33325 11.7015 7.33325 11.3333C7.33325 10.9651 7.63173 10.6667 7.99992 10.6667C8.36811 10.6667 8.66659 10.9651 8.66659 11.3333Z" fill="#197DDC"/>
<path d="M8.66659 8.66667C8.66659 9.03486 8.36811 9.33333 7.99992 9.33333C7.63173 9.33333 7.33325 9.03486 7.33325 8.66667C7.33325 8.29848 7.63173 8 7.99992 8C8.36811 8 8.66659 8.29848 8.66659 8.66667Z" fill="#197DDC"/>
<path d="M5.33333 11.3333C5.33333 11.7015 5.03486 12 4.66667 12C4.29848 12 4 11.7015 4 11.3333C4 10.9651 4.29848 10.6667 4.66667 10.6667C5.03486 10.6667 5.33333 10.9651 5.33333 11.3333Z" fill="#197DDC"/>
<path d="M5.33333 8.66667C5.33333 9.03486 5.03486 9.33333 4.66667 9.33333C4.29848 9.33333 4 9.03486 4 8.66667C4 8.29848 4.29848 8 4.66667 8C5.03486 8 5.33333 8.29848 5.33333 8.66667Z" fill="#197DDC"/>
</svg>
