<svg width="20" height="20" viewBox="0 0 20 20" fill="none" xmlns="http://www.w3.org/2000/svg">
<path d="M15.5556 9.16667C17.1261 8.93443 18.3334 7.53812 18.3334 5.8503C18.3334 3.99998 16.8825 2.5 15.0927 2.5H4.90749C3.11768 2.5 1.66675 3.99998 1.66675 5.8503C1.66675 7.53812 2.87402 8.93443 4.44453 9.16667" stroke="white" stroke-width="1.5"/>
<path d="M9.99992 5V10.8333M9.99992 10.8333L11.6666 8.88889M9.99992 10.8333L8.33325 8.88889" stroke="white" stroke-width="1.5" stroke-linecap="round" stroke-linejoin="round"/>
<path d="M4.16675 8.33333C4.16675 6.76198 4.16675 5.97631 4.6549 5.48816C5.14306 5 5.92873 5 7.50008 5H12.5001C14.0714 5 14.8571 5 15.3453 5.48816C15.8334 5.97631 15.8334 6.76198 15.8334 8.33333V13.3333C15.8334 14.9047 15.8334 15.6904 15.3453 16.1785C14.8571 16.6667 14.0714 16.6667 12.5001 16.6667H7.50008C5.92873 16.6667 5.14306 16.6667 4.6549 16.1785C4.16675 15.6904 4.16675 14.9047 4.16675 13.3333V8.33333Z" stroke="white" stroke-width="1.5"/>
</svg>
