<svg width="15" height="14" viewBox="0 0 15 14" fill="none" xmlns="http://www.w3.org/2000/svg">
<path d="M2.41675 5.25C2.41675 3.60008 2.41675 2.77513 2.92931 2.26256C3.44187 1.75 4.26683 1.75 5.91675 1.75H9.41675C11.0667 1.75 11.8916 1.75 12.4042 2.26256C12.9167 2.77513 12.9167 3.60008 12.9167 5.25V8.16667C12.9167 9.26661 12.9167 9.81658 12.575 10.1583C12.2333 10.5 11.6834 10.5 10.5834 10.5H4.75008C3.65014 10.5 3.10017 10.5 2.75846 10.1583C2.41675 9.81658 2.41675 9.26661 2.41675 8.16667V5.25Z" stroke="#197DDC"/>
<path d="M13.5002 12.25H1.8335" stroke="#197DDC" stroke-linecap="round"/>
<path d="M9.41675 8.75H5.91675" stroke="#197DDC" stroke-linecap="round"/>
</svg>
