<svg width="20" height="20" viewBox="0 0 20 20" fill="none" xmlns="http://www.w3.org/2000/svg">
<path d="M2.5 8.33341C2.5 5.19072 2.5 3.61937 3.47631 2.64306C4.45262 1.66675 6.02397 1.66675 9.16667 1.66675H10.8333C13.976 1.66675 15.5474 1.66675 16.5237 2.64306C17.5 3.61937 17.5 5.19072 17.5 8.33342V11.6667C17.5 14.8094 17.5 16.3808 16.5237 17.3571C15.5474 18.3334 13.976 18.3334 10.8333 18.3334H9.16667C6.02397 18.3334 4.45262 18.3334 3.47631 17.3571C2.5 16.3808 2.5 14.8094 2.5 11.6667V8.33341Z" stroke="#858585" stroke-width="1.5"/>
<path d="M6.66667 10H13.3333" stroke="#858585" stroke-width="1.5" stroke-linecap="round"/>
<path d="M6.66667 6.66675H13.3333" stroke="#858585" stroke-width="1.5" stroke-linecap="round"/>
<path d="M6.66667 13.3333H10.8333" stroke="#858585" stroke-width="1.5" stroke-linecap="round"/>
</svg>
