<svg width="73" height="73" viewBox="0 0 73 73" fill="none" xmlns="http://www.w3.org/2000/svg">
<path d="M6.5 36.5002C6.5 22.1616 6.5 14.9923 10.8934 10.5379C15.2868 6.0835 22.3579 6.0835 36.5 6.0835C50.6421 6.0835 57.7132 6.0835 62.1066 10.5379C66.5 14.9923 66.5 22.1616 66.5 36.5002C66.5 50.8387 66.5 58.008 62.1066 62.4624C57.7132 66.9168 50.6421 66.9168 36.5 66.9168C22.3579 66.9168 15.2868 66.9168 10.8934 62.4624C6.5 58.008 6.5 50.8387 6.5 36.5002Z" fill="#FFECEC" stroke="#FF6161" stroke-width="3"/>
<path d="M43.9999 28.8961L29 44.1043M28.9999 28.896L43.9999 44.1043" stroke="#FF6161" stroke-width="3" stroke-linecap="round"/>
</svg>
