<svg width="20" height="20" viewBox="0 0 20 20" fill="none" xmlns="http://www.w3.org/2000/svg">
<path d="M11.6665 12.0835C11.6665 10.7028 12.7858 9.5835 14.1665 9.5835C15.5472 9.5835 16.6665 10.7028 16.6665 12.0835C16.6665 13.4642 15.5472 14.5835 14.1665 14.5835C12.7858 14.5835 11.6665 13.4642 11.6665 12.0835Z" stroke="#197DDC" stroke-width="1.5"/>
<path d="M3.33348 7.9165C3.33348 9.29722 4.45276 10.4165 5.83348 10.4165C7.21419 10.4165 8.33348 9.29722 8.33348 7.9165C8.33348 6.53579 7.21419 5.4165 5.83348 5.4165C4.45276 5.4165 3.33348 6.53579 3.33348 7.9165Z" stroke="#197DDC" stroke-width="1.5"/>
<path d="M14.1318 7.5L14.1318 1.66667" stroke="#197DDC" stroke-width="1.5" stroke-linecap="round"/>
<path d="M5.79883 12.5L5.79883 18.3333" stroke="#197DDC" stroke-width="1.5" stroke-linecap="round"/>
<path d="M14.1318 18.3335L14.1318 16.6668" stroke="#197DDC" stroke-width="1.5" stroke-linecap="round"/>
<path d="M5.79883 1.6665L5.79883 3.33317" stroke="#197DDC" stroke-width="1.5" stroke-linecap="round"/>
</svg>
