<svg width="60" height="60" viewBox="0 0 60 60" fill="none" xmlns="http://www.w3.org/2000/svg">
<path d="M5 17.3744C5 15.168 5 14.0649 5.17338 13.146C5.9366 9.10077 9.10077 5.9366 13.146 5.17338C14.0649 5 15.168 5 17.3744 5C18.3411 5 18.8244 5 19.2889 5.04344C21.2916 5.23072 23.1913 6.01759 24.7399 7.30129C25.099 7.59904 25.4408 7.94081 26.1244 8.62437L27.5 10C29.5394 12.0394 30.5592 13.0592 31.7803 13.7386C32.4511 14.1118 33.1626 14.4065 33.9009 14.6169C35.2447 15 36.6869 15 39.5711 15H40.5052C47.0862 15 50.3766 15 52.5154 16.9237C52.7122 17.1006 52.8994 17.2878 53.0763 17.4846C55 19.6234 55 22.9138 55 29.4948V35C55 44.4281 55 49.1421 52.0711 52.0711C49.1421 55 44.4281 55 35 55H25C15.5719 55 10.8579 55 7.92893 52.0711C5 49.1421 5 44.4281 5 35V17.3744Z" fill="#DCEEFF"/>
<path d="M45 27.132V16C45 15.5286 45 15.2929 44.8536 15.1464C44.7071 15 44.4714 15 44 15H35V27.132C35 27.8572 35 28.2198 35.2371 28.3663C35.4743 28.5129 35.7986 28.3507 36.4472 28.0264L39.5528 26.4736C39.7722 26.3639 39.882 26.309 40 26.309C40.118 26.309 40.2278 26.3639 40.4472 26.4736L43.5528 28.0264C44.2014 28.3507 44.5257 28.5129 44.7629 28.3663C45 28.2198 45 27.8572 45 27.132Z" fill="#197DDC"/>
</svg>
