<svg width="16" height="15" viewBox="0 0 16 15" fill="none" xmlns="http://www.w3.org/2000/svg">
<path d="M8 5V7.5L9.5625 9.0625" stroke="#0371D8" stroke-width="1.5" stroke-linecap="round" stroke-linejoin="round"/>
<path d="M4.00259 3.50265L3.47226 2.97232L3.47226 2.97232L4.00259 3.50265ZM3.2111 4.29414L2.46111 4.29791C2.46318 4.70917 2.79606 5.04206 3.20733 5.04413L3.2111 4.29414ZM4.7983 5.05212C5.21251 5.0542 5.54998 4.72011 5.55206 4.3059C5.55414 3.89169 5.22005 3.55422 4.80584 3.55214L4.7983 5.05212ZM3.9531 2.6994C3.95101 2.28519 3.61354 1.95109 3.19934 1.95318C2.78513 1.95526 2.45103 2.29273 2.45311 2.70694L3.9531 2.6994ZM3.17027 6.77883C3.22652 6.36845 2.93945 5.99018 2.52907 5.93393C2.11869 5.87768 1.74042 6.16475 1.68417 6.57513L3.17027 6.77883ZM12.4878 3.01229C9.9922 0.516728 5.9558 0.48878 3.47226 2.97232L4.53292 4.03298C6.42065 2.14525 9.50725 2.1531 11.4271 4.07295L12.4878 3.01229ZM3.51223 11.9878C6.0078 14.4834 10.0442 14.5113 12.5277 12.0278L11.4671 10.9671C9.57935 12.8549 6.49275 12.847 4.57289 10.9272L3.51223 11.9878ZM12.5277 12.0278C15.0113 9.54426 14.9833 5.50786 12.4878 3.01229L11.4271 4.07295C13.347 5.99281 13.3548 9.07942 11.4671 10.9671L12.5277 12.0278ZM3.47226 2.97232L2.68077 3.76381L3.74143 4.82447L4.53292 4.03298L3.47226 2.97232ZM3.20733 5.04413L4.7983 5.05212L4.80584 3.55214L3.21487 3.54415L3.20733 5.04413ZM3.96109 4.29037L3.9531 2.6994L2.45311 2.70694L2.46111 4.29791L3.96109 4.29037ZM1.68417 6.57513C1.42175 8.48963 2.03296 10.5086 3.51223 11.9878L4.57289 10.9272C3.4369 9.79117 2.96931 8.24495 3.17027 6.77883L1.68417 6.57513Z" fill="#0371D8"/>
</svg>
