<svg width="20" height="20" viewBox="0 0 20 20" fill="none" xmlns="http://www.w3.org/2000/svg">
<g clip-path="url(#clip0_6981_1875)">
<path d="M1.66675 10.1698C1.66675 8.26275 1.66675 7.30923 2.09942 6.51879C2.53208 5.72834 3.32254 5.23777 4.90344 4.25661L6.57011 3.22223C8.24124 2.18508 9.0768 1.6665 10.0001 1.6665C10.9234 1.6665 11.7589 2.18508 13.4301 3.22223L15.0967 4.25661C16.6776 5.23776 17.4681 5.72834 17.9007 6.51879C18.3334 7.30923 18.3334 8.26275 18.3334 10.1698V11.4373C18.3334 14.688 18.3334 16.3134 17.3571 17.3233C16.3808 18.3332 14.8094 18.3332 11.6667 18.3332H8.33341C5.19072 18.3332 3.61937 18.3332 2.64306 17.3233C1.66675 16.3134 1.66675 14.688 1.66675 11.4373V10.1698Z" stroke="#DCEEFF" stroke-width="1.5"/>
<path d="M12.5 15H7.5" stroke="#DCEEFF" stroke-width="1.5" stroke-linecap="round"/>
</g>
<defs>
<clipPath id="clip0_6981_1875">
<rect width="20" height="20" fill="white"/>
</clipPath>
</defs>
</svg>
