<svg width="20" height="20" viewBox="0 0 20 20" fill="none" xmlns="http://www.w3.org/2000/svg">
<g clip-path="url(#clip0_1608_6658)">
<circle cx="10.0001" cy="9.99984" r="8.33333" stroke="#197DDC" stroke-width="1.5"/>
<path d="M10 14.1665V9.1665" stroke="#197DDC" stroke-width="1.5" stroke-linecap="round"/>
<mask id="path-3-inside-1_1608_6658" fill="white">
<ellipse cx="0.833333" cy="0.833333" rx="0.833333" ry="0.833333" transform="matrix(1 0 0 -1 9.16675 7.5)"/>
</mask>
<ellipse cx="0.833333" cy="0.833333" rx="0.833333" ry="0.833333" transform="matrix(1 0 0 -1 9.16675 7.5)" fill="#1C274C"/>
<path d="M9.83341 6.66667C9.83341 6.75871 9.90803 6.83333 10.0001 6.83333V4.83333C11.0126 4.83333 11.8334 5.65415 11.8334 6.66667H9.83341ZM10.0001 6.83333C10.0921 6.83333 10.1667 6.75871 10.1667 6.66667H8.16675C8.16675 5.65415 8.98756 4.83333 10.0001 4.83333V6.83333ZM10.1667 6.66667C10.1667 6.57462 10.0921 6.5 10.0001 6.5V8.5C8.98756 8.5 8.16675 7.67919 8.16675 6.66667H10.1667ZM10.0001 6.5C9.90803 6.5 9.83341 6.57462 9.83341 6.66667H11.8334C11.8334 7.67919 11.0126 8.5 10.0001 8.5V6.5Z" fill="#197DDC" mask="url(#path-3-inside-1_1608_6658)"/>
</g>
<defs>
<clipPath id="clip0_1608_6658">
<rect width="20" height="20" fill="white"/>
</clipPath>
</defs>
</svg>
