<svg width="192" height="40" viewBox="0 0 192 40" fill="none" xmlns="http://www.w3.org/2000/svg">
<path d="M53.774 29.7899C53.774 30.9735 53.2808 31.6969 51.9657 31.6969C51.341 31.6969 50.9136 31.5982 50.6177 31.5325V35.182C50.8478 35.2806 51.8013 35.5436 53.0835 35.5436C56.207 35.5436 58.1468 33.3408 58.1468 30.2173V12.6274H53.774V29.7899Z" fill="#111111"/>
<path d="M68.1218 25.3185C65.9847 25.3185 64.012 23.7403 64.012 20.7155C64.012 17.6578 65.9847 16.1125 68.1218 16.1125C70.2589 16.1125 72.2316 17.6578 72.2316 20.7155C72.2316 23.7732 70.2589 25.3185 68.1218 25.3185ZM68.1218 12.1343C63.2887 12.1343 59.6392 15.718 59.6392 20.7155C59.6392 25.6801 63.2887 29.2967 68.1218 29.2967C72.9549 29.2967 76.6044 25.6801 76.6044 20.7155C76.6044 15.718 72.9549 12.1343 68.1218 12.1343Z" fill="#111111"/>
<path d="M82.3247 28.8036V26.8309C83.1795 28.2118 84.8892 29.1981 87.1249 29.1981C91.7279 29.1981 94.7527 25.5486 94.7527 20.6498C94.7527 15.8495 92.0238 12.2 87.2893 12.2C84.8892 12.2 83.1138 13.2521 82.3904 14.4029V4.99968H78.0834V28.8036H82.3247ZM90.3799 20.6826C90.3799 23.6417 88.6044 25.2856 86.3687 25.2856C84.1659 25.2856 82.3247 23.6088 82.3247 20.6826C82.3247 17.7236 84.1659 16.1125 86.3687 16.1125C88.6044 16.1125 90.3799 17.7236 90.3799 20.6826Z" fill="#111111"/>
<path d="M103.738 8.61629C104.462 8.61629 104.889 8.71493 105.119 8.78068V5.09831C104.758 4.93392 103.87 4.76953 102.949 4.76953C99.3657 4.76953 97.0642 7.13677 97.0642 10.7863V12.6274H94.3682V16.3756H97.0642V28.8036H101.47V16.3756H105.119V12.6274H101.47V10.852C101.47 9.04371 102.752 8.61629 103.738 8.61629Z" fill="#111111"/>
<path d="M112.902 25.3185C110.765 25.3185 108.792 23.7403 108.792 20.7155C108.792 17.6578 110.765 16.1125 112.902 16.1125C115.039 16.1125 117.012 17.6578 117.012 20.7155C117.012 23.7732 115.039 25.3185 112.902 25.3185ZM112.902 12.1343C108.069 12.1343 104.419 15.718 104.419 20.7155C104.419 25.6801 108.069 29.2967 112.902 29.2967C117.735 29.2967 121.384 25.6801 121.384 20.7155C121.384 15.718 117.735 12.1343 112.902 12.1343Z" fill="#111111"/>
<path d="M132.727 12.6274C131.694 12.6275 132.069 12.6274 131.708 12.6274C130.327 12.6274 128.091 12.8905 127.105 15.0276V12.6274H122.863V28.8036H127.236V21.406C127.236 17.9209 129.176 16.5071 131.412 16.5071C131.806 16.5071 132.727 16.5071 132.727 16.5071V12.6274Z" fill="#111111"/>
<path d="M139.864 7.79433H135.919V10.0629C135.919 11.5096 135.13 12.6274 133.42 12.6274H132.598V16.5071H135.524V24.0362C135.524 27.1597 137.497 29.0337 140.653 29.0337C141.936 29.0337 142.725 28.8036 143.119 28.6392V25.0226C142.889 25.0883 142.297 25.1541 141.771 25.1541C140.522 25.1541 139.864 24.6938 139.864 23.28V16.5071H143.119V12.6274H139.864V7.79433Z" fill="#111111"/>
<path d="M147.89 18.8743C147.988 17.3948 149.238 15.6851 151.506 15.6851C154.005 15.6851 155.057 17.2633 155.123 18.8743H147.89ZM155.55 23.0827C155.024 24.5294 153.906 25.5486 151.868 25.5486C149.698 25.5486 147.89 24.0033 147.791 21.8662H159.364C159.364 21.8005 159.43 21.1429 159.43 20.5182C159.43 15.3235 156.438 12.1343 151.441 12.1343C147.298 12.1343 143.484 15.4879 143.484 20.6498C143.484 26.1075 147.396 29.2967 151.835 29.2967C155.813 29.2967 158.378 26.9624 159.2 24.1677L155.55 23.0827Z" fill="#111111"/>
<path d="M168.167 16.1783C170.337 16.1783 171.356 17.5592 171.751 18.9072L175.663 17.5921C174.973 14.8632 172.474 12.1343 168.068 12.1343C163.367 12.1343 159.684 15.718 159.684 20.7155C159.684 25.6801 163.432 29.2967 168.2 29.2967C172.507 29.2967 175.038 26.535 175.762 23.8389L171.915 22.5567C171.553 23.8061 170.435 25.2856 168.2 25.2856C165.964 25.2856 164.057 23.6417 164.057 20.7155C164.057 17.7893 165.931 16.1783 168.167 16.1783Z" fill="#111111"/>
<path d="M181.378 19.3017C181.476 17.5263 182.561 16.1454 184.402 16.1454C186.507 16.1454 187.394 17.5592 187.394 19.3675V28.8036H191.767V18.6113C191.767 15.0604 189.86 12.2 185.75 12.2C184.205 12.2 182.43 12.7261 181.378 13.9755V4.99968H177.005V28.8036H181.378V19.3017Z" fill="#111111"/>
<path d="M55.9438 9.96431C54.4643 9.96431 53.2478 8.78069 53.2478 7.30116C53.2478 5.78876 54.4643 4.57227 55.9438 4.57227C57.4562 4.57227 58.6398 5.78876 58.6398 7.30116C58.6398 8.78069 57.4562 9.96431 55.9438 9.96431Z" fill="#0371D8"/>
<path fill-rule="evenodd" clip-rule="evenodd" d="M13.7201 7.28041L16.3293 22.0778L42.03 17.5461L39.4208 2.74868L13.7201 7.28041ZM12.5293 5.08131C11.669 5.23299 11.0946 6.05333 11.2463 6.91358L14.1302 23.2686C14.2818 24.1288 15.1022 24.7032 15.9624 24.5515L43.2207 19.7452C44.081 19.5935 44.6554 18.7731 44.5037 17.9129L41.6199 1.5579C41.4682 0.697649 40.6479 0.123244 39.7876 0.274929L12.5293 5.08131Z" fill="#0371D8"/>
<path fill-rule="evenodd" clip-rule="evenodd" d="M39.435 24.4273L16.315 28.5039C15.9019 28.5768 15.5346 28.8108 15.294 29.1544L9.89646 36.8629L33.0164 32.7862C33.4295 32.7134 33.7968 32.4794 34.0374 32.1358L39.435 24.4273ZM15.903 26.1675C14.8703 26.3496 13.9521 26.9345 13.3506 27.7936L5.76288 38.63C5.35877 39.2071 5.85417 39.9848 6.54801 39.8624L33.4284 35.1227C34.4612 34.9406 35.3793 34.3557 35.9808 33.4966L43.5685 22.6602C43.9727 22.0831 43.4773 21.3054 42.7834 21.4278L15.903 26.1675Z" fill="#0371D8"/>
</svg>
