<svg width="73" height="72" viewBox="0 0 73 72" fill="none" xmlns="http://www.w3.org/2000/svg">
<path d="M6.5 36C6.5 24.6863 6.5 19.0294 10.0147 15.5147C13.5294 12 19.1863 12 30.5 12H42.5C53.8137 12 59.4706 12 62.9853 15.5147C66.5 19.0294 66.5 24.6863 66.5 36C66.5 47.3137 66.5 52.9706 62.9853 56.4853C59.4706 60 53.8137 60 42.5 60H30.5C19.1863 60 13.5294 60 10.0147 56.4853C6.5 52.9706 6.5 47.3137 6.5 36Z" fill="#DCEEFF" stroke="#197DDC" stroke-width="3"/>
<path d="M18.5 24L24.9767 29.3972C30.4866 33.9888 33.2416 36.2846 36.5 36.2846C39.7584 36.2846 42.5134 33.9888 48.0233 29.3972L54.5 24" stroke="#197DDC" stroke-width="3" stroke-linecap="round"/>
</svg>
