<svg width="20" height="20" viewBox="0 0 20 20" fill="none" xmlns="http://www.w3.org/2000/svg">
<g clip-path="url(#clip0_6981_852)">
<path d="M10.9055 17.8229L11.5509 18.2049L11.5509 18.2049L10.9055 17.8229ZM11.3573 17.0597L10.7118 16.6777L10.7118 16.6777L11.3573 17.0597ZM8.64263 17.0597L7.99722 17.4417L7.99722 17.4417L8.64263 17.0597ZM9.09438 17.8229L9.7398 17.4409L9.7398 17.4409L9.09438 17.8229ZM1.98379 13.261L2.6767 12.974L2.6767 12.974L1.98379 13.261ZM6.49127 15.826L6.47835 16.5759L6.47835 16.5759L6.49127 15.826ZM4.23878 15.516L3.95177 16.2089L3.95177 16.2089L4.23878 15.516ZM18.0161 13.261L18.709 13.548L18.709 13.548L18.0161 13.261ZM13.5086 15.826L13.4957 15.0762L13.4957 15.0762L13.5086 15.826ZM15.7611 15.516L16.0482 16.2089L16.0482 16.2089L15.7611 15.516ZM16.3437 2.2805L15.9518 2.91998L15.9518 2.91998L16.3437 2.2805ZM17.7193 3.65609L18.3588 3.26422L18.3588 3.26422L17.7193 3.65609ZM3.65622 2.2805L3.26434 1.64102L3.26434 1.64102L3.65622 2.2805ZM2.28063 3.65609L1.64115 3.26422L1.64115 3.26422L2.28063 3.65609ZM7.83562 16.008L8.21269 15.3597L8.21269 15.3597L7.83562 16.008ZM11.5509 18.2049L12.0027 17.4417L10.7118 16.6777L10.2601 17.4409L11.5509 18.2049ZM7.99722 17.4417L8.44897 18.2049L9.7398 17.4409L9.28805 16.6777L7.99722 17.4417ZM10.2601 17.4409C10.1479 17.6305 9.85203 17.6305 9.7398 17.4409L8.44897 18.2049C9.14201 19.3758 10.8579 19.3758 11.5509 18.2049L10.2601 17.4409ZM8.74996 2.4165H11.25V0.916504H8.74996V2.4165ZM17.5833 8.74984V9.58317H19.0833V8.74984H17.5833ZM2.41663 9.58317V8.74984H0.916626V9.58317H2.41663ZM0.916626 9.58317C0.916626 10.5436 0.91622 11.3015 0.958012 11.914C1.00026 12.5333 1.08814 13.0586 1.29089 13.548L2.6767 12.974C2.56228 12.6978 2.49157 12.3548 2.45453 11.8119C2.41703 11.2623 2.41663 10.5641 2.41663 9.58317H0.916626ZM6.5042 15.0762C5.45798 15.0581 4.93138 14.9911 4.52579 14.8231L3.95177 16.2089C4.64669 16.4968 5.4323 16.5579 6.47835 16.5759L6.5042 15.0762ZM1.29088 13.548C1.7899 14.7528 2.74704 15.7099 3.95177 16.2089L4.52579 14.8231C3.68861 14.4763 3.02348 13.8112 2.6767 12.974L1.29088 13.548ZM17.5833 9.58317C17.5833 10.5641 17.5829 11.2623 17.5454 11.8119C17.5083 12.3548 17.4376 12.6978 17.3232 12.974L18.709 13.548C18.9118 13.0586 18.9997 12.5333 19.0419 11.914C19.0837 11.3015 19.0833 10.5436 19.0833 9.58317H17.5833ZM13.5215 16.5759C14.5676 16.5579 15.3532 16.4968 16.0482 16.2089L15.4741 14.8231C15.0685 14.9911 14.5419 15.0581 13.4957 15.0762L13.5215 16.5759ZM17.3232 12.974C16.9764 13.8112 16.3113 14.4763 15.4741 14.8231L16.0482 16.2089C17.2529 15.7099 18.21 14.7528 18.709 13.548L17.3232 12.974ZM11.25 2.4165C12.6284 2.4165 13.6096 2.4173 14.3731 2.48989C15.1254 2.56142 15.5885 2.69733 15.9518 2.91998L16.7356 1.64102C16.097 1.24967 15.3771 1.07859 14.515 0.996621C13.6641 0.915713 12.5994 0.916504 11.25 0.916504V2.4165ZM19.0833 8.74984C19.0833 7.40043 19.0841 6.33571 19.0032 5.48476C18.9212 4.62265 18.7501 3.90284 18.3588 3.26422L17.0798 4.04797C17.3025 4.4113 17.4384 4.87443 17.5099 5.62674C17.5825 6.39021 17.5833 7.37139 17.5833 8.74984H19.0833ZM15.9518 2.91998C16.4116 3.20171 16.7981 3.58824 17.0798 4.04797L18.3588 3.26422C17.9534 2.60266 17.3971 2.04643 16.7356 1.64102L15.9518 2.91998ZM8.74996 0.916504C7.40055 0.916504 6.33583 0.915713 5.48488 0.996621C4.62278 1.07859 3.90297 1.24967 3.26434 1.64102L4.04809 2.91998C4.41142 2.69733 4.87455 2.56142 5.62686 2.48989C6.39034 2.4173 7.37151 2.4165 8.74996 2.4165V0.916504ZM2.41663 8.74984C2.41663 7.37139 2.41742 6.39021 2.49001 5.62674C2.56154 4.87443 2.69746 4.4113 2.92011 4.04797L1.64115 3.26422C1.24979 3.90284 1.07871 4.62265 0.996743 5.48476C0.915835 6.33571 0.916626 7.40043 0.916626 8.74984H2.41663ZM3.26434 1.64102C2.60278 2.04643 2.04655 2.60265 1.64115 3.26422L2.92011 4.04797C3.20183 3.58824 3.58836 3.20171 4.04809 2.91998L3.26434 1.64102ZM9.28805 16.6777C9.12005 16.3939 8.96811 16.1356 8.81936 15.9315C8.66139 15.7148 8.47484 15.5122 8.21269 15.3597L7.45855 16.6564C7.47781 16.6676 7.51957 16.6948 7.60715 16.815C7.70396 16.9478 7.81481 17.1335 7.99722 17.4417L9.28805 16.6777ZM6.47835 16.5759C6.84659 16.5823 7.07156 16.5869 7.2411 16.6057C7.39674 16.6229 7.44175 16.6466 7.45855 16.6564L8.21269 15.3597C7.94807 15.2058 7.67522 15.1446 7.40619 15.1148C7.15108 15.0866 6.84458 15.082 6.5042 15.0762L6.47835 16.5759ZM12.0027 17.4417C12.1851 17.1335 12.2959 16.9478 12.3927 16.815C12.4803 16.6948 12.5221 16.6676 12.5413 16.6564L11.7872 15.3597C11.525 15.5122 11.3385 15.7148 11.1805 15.9315C11.0318 16.1356 10.8798 16.3939 10.7118 16.6777L12.0027 17.4417ZM13.4957 15.0762C13.1553 15.082 12.8488 15.0866 12.5937 15.1148C12.3247 15.1446 12.0518 15.2058 11.7872 15.3597L12.5413 16.6564C12.5581 16.6466 12.6031 16.6229 12.7588 16.6057C12.9283 16.5869 13.1533 16.5823 13.5215 16.5759L13.4957 15.0762Z" fill="#0371D8"/>
<path d="M6.66663 7.5H13.3333" stroke="#0371D8" stroke-width="1.5" stroke-linecap="round"/>
<path d="M6.66663 10.4165H11.25" stroke="#0371D8" stroke-width="1.5" stroke-linecap="round"/>
</g>
<defs>
<clipPath id="clip0_6981_852">
<rect width="20" height="20" fill="white"/>
</clipPath>
</defs>
</svg>
