<svg width="16" height="16" viewBox="0 0 16 16" fill="none" xmlns="http://www.w3.org/2000/svg">
<g clip-path="url(#clip0_2182_10408)">
<path d="M8.72442 14.2586L9.36983 14.6406L8.72442 14.2586ZM9.08581 13.6481L8.4404 13.266L9.08581 13.6481ZM6.91412 13.6481L6.2687 14.0301H6.2687L6.91412 13.6481ZM7.27552 14.2586L7.92093 13.8766H7.92093L7.27552 14.2586ZM1.58705 10.6091L2.27996 10.3221H2.27996L1.58705 10.6091ZM5.19303 12.6611L5.18011 13.411L5.19303 12.6611ZM3.39104 12.4131L3.10402 13.106L3.10402 13.106L3.39104 12.4131ZM14.4129 10.6091L15.1058 10.8961V10.8961L14.4129 10.6091ZM10.8069 12.6611L10.794 11.9112L10.8069 12.6611ZM12.6089 12.4131L12.8959 13.106H12.8959L12.6089 12.4131ZM13.075 1.8247L12.6831 2.46418L13.075 1.8247ZM14.1754 2.92517L14.8149 2.53329V2.53329L14.1754 2.92517ZM2.92498 1.8247L2.53311 1.18522V1.18522L2.92498 1.8247ZM1.82451 2.92517L1.18503 2.53329H1.18503L1.82451 2.92517ZM6.26851 12.8067L6.64558 12.1584L6.64558 12.1584L6.26851 12.8067ZM9.36983 14.6406L9.73123 14.0301L8.4404 13.266L8.079 13.8766L9.36983 14.6406ZM6.2687 14.0301L6.6301 14.6406L7.92093 13.8766L7.55953 13.266L6.2687 14.0301ZM8.079 13.8766C8.06985 13.8921 8.06051 13.8997 8.05062 13.905C8.03866 13.9115 8.02111 13.9168 7.99997 13.9168C7.97882 13.9168 7.96127 13.9115 7.94931 13.905C7.93942 13.8997 7.93009 13.8921 7.92093 13.8766L6.6301 14.6406C7.24262 15.6755 8.75731 15.6755 9.36983 14.6406L8.079 13.8766ZM6.99998 2.0835H8.99998V0.583496H6.99998V2.0835ZM13.9166 7.00016V7.66683H15.4166V7.00016H13.9166ZM2.08331 7.66683V7.00016H0.583313V7.66683H2.08331ZM0.583313 7.66683C0.583313 8.43314 0.582907 9.04543 0.616769 9.54174C0.651092 10.0448 0.723108 10.4832 0.894138 10.8961L2.27996 10.3221C2.19725 10.1224 2.1424 9.8663 2.11329 9.43963C2.08372 9.00622 2.08331 8.45366 2.08331 7.66683H0.583313ZM5.20595 11.9112C4.36897 11.8968 3.97358 11.8426 3.67805 11.7202L3.10402 13.106C3.68889 13.3483 4.34328 13.3966 5.18011 13.411L5.20595 11.9112ZM0.894138 10.8961C1.30857 11.8967 2.10349 12.6916 3.10402 13.106L3.67805 11.7202C3.04506 11.458 2.54215 10.9551 2.27996 10.3221L0.894138 10.8961ZM13.9166 7.66683C13.9166 8.45366 13.9162 9.00622 13.8867 9.43963C13.8576 9.8663 13.8027 10.1224 13.72 10.3221L15.1058 10.8961C15.2769 10.4832 15.3489 10.0448 15.3832 9.54174C15.4171 9.04543 15.4166 8.43314 15.4166 7.66683H13.9166ZM10.8198 13.411C11.6567 13.3966 12.3111 13.3483 12.8959 13.106L12.3219 11.7202C12.0264 11.8426 11.631 11.8968 10.794 11.9112L10.8198 13.411ZM13.72 10.3221C13.4578 10.9551 12.9549 11.458 12.3219 11.7202L12.8959 13.106C13.8965 12.6916 14.6914 11.8967 15.1058 10.8961L13.72 10.3221ZM8.99998 2.0835C10.1056 2.0835 10.8822 2.08429 11.4843 2.14153C12.0751 2.19771 12.42 2.30293 12.6831 2.46418L13.4668 1.18522C12.9284 0.855265 12.3269 0.714883 11.6262 0.648263C10.9367 0.582705 10.0766 0.583496 8.99998 0.583496V2.0835ZM15.4166 7.00016C15.4166 5.92354 15.4174 5.06341 15.3519 4.3739C15.2853 3.67324 15.1449 3.07172 14.8149 2.53329L13.536 3.31704C13.6972 3.58018 13.8024 3.92502 13.8586 4.51588C13.9159 5.11791 13.9166 5.8945 13.9166 7.00016H15.4166ZM12.6831 2.46418C13.0307 2.67719 13.323 2.96944 13.536 3.31704L14.8149 2.53329C14.4782 1.98386 14.0163 1.52191 13.4668 1.18522L12.6831 2.46418ZM6.99998 0.583496C5.92336 0.583496 5.06323 0.582705 4.37372 0.648263C3.67305 0.714883 3.07154 0.855265 2.53311 1.18522L3.31686 2.46418C3.57999 2.30293 3.92483 2.19771 4.5157 2.14153C5.11773 2.08429 5.89431 2.0835 6.99998 2.0835V0.583496ZM2.08331 7.00016C2.08331 5.8945 2.0841 5.11791 2.14135 4.51588C2.19753 3.92502 2.30274 3.58018 2.46399 3.31704L1.18503 2.53329C0.855082 3.07172 0.7147 3.67324 0.64808 4.3739C0.582522 5.06341 0.583313 5.92354 0.583313 7.00016H2.08331ZM2.53311 1.18522C1.98368 1.52191 1.52173 1.98386 1.18503 2.53329L2.46399 3.31704C2.677 2.96944 2.96926 2.67719 3.31686 2.46418L2.53311 1.18522ZM7.55953 13.266C7.42658 13.0414 7.30091 12.8275 7.17672 12.6571C7.0433 12.4741 6.87959 12.2945 6.64558 12.1584L5.89143 13.455C5.89154 13.4551 5.89156 13.4551 5.89157 13.4551C5.89158 13.4551 5.8918 13.4553 5.89227 13.4556C5.89311 13.4563 5.89594 13.4585 5.90101 13.4635C5.91183 13.474 5.93209 13.4961 5.96451 13.5406C6.03677 13.6398 6.12134 13.7811 6.2687 14.0301L7.55953 13.266ZM5.18011 13.411C5.47748 13.4161 5.64931 13.4199 5.77639 13.4339C5.88956 13.4465 5.90278 13.4616 5.89144 13.455L6.64558 12.1584C6.4091 12.0209 6.16803 11.9681 5.94148 11.943C5.72882 11.9195 5.47548 11.9159 5.20595 11.9112L5.18011 13.411ZM9.73123 14.0301C9.8786 13.7811 9.96317 13.6398 10.0354 13.5406C10.0678 13.4961 10.0881 13.474 10.0989 13.4635C10.104 13.4585 10.1068 13.4563 10.1077 13.4556C10.1081 13.4553 10.1083 13.4551 10.1084 13.4551C10.1084 13.4551 10.1084 13.4551 10.1085 13.455L9.35435 12.1584C9.12035 12.2945 8.95663 12.4741 8.82321 12.6571C8.69902 12.8275 8.57335 13.0414 8.4404 13.266L9.73123 14.0301ZM10.794 11.9112C10.5245 11.9159 10.2711 11.9195 10.0585 11.943C9.8319 11.9681 9.59083 12.0209 9.35435 12.1584L10.1085 13.455C10.0972 13.4616 10.1104 13.4465 10.2235 13.4339C10.3506 13.4199 10.5224 13.4161 10.8198 13.411L10.794 11.9112Z" fill="#0371D8"/>
<path d="M5.50002 7.33317C5.50002 7.42522 5.4254 7.49984 5.33335 7.49984C5.24131 7.49984 5.16669 7.42522 5.16669 7.33317C5.16669 7.24112 5.24131 7.1665 5.33335 7.1665C5.4254 7.1665 5.50002 7.24112 5.50002 7.33317ZM8.16669 7.33317C8.16669 7.42522 8.09207 7.49984 8.00002 7.49984C7.90797 7.49984 7.83335 7.42522 7.83335 7.33317C7.83335 7.24112 7.90797 7.1665 8.00002 7.1665C8.09207 7.1665 8.16669 7.24112 8.16669 7.33317ZM10.8334 7.33317C10.8334 7.42522 10.7587 7.49984 10.6667 7.49984C10.5746 7.49984 10.5 7.42522 10.5 7.33317C10.5 7.24112 10.5746 7.1665 10.6667 7.1665C10.7587 7.1665 10.8334 7.24112 10.8334 7.33317Z" fill="#0371D8" stroke="#0371D8"/>
</g>
<defs>
<clipPath id="clip0_2182_10408">
<rect width="16" height="16" fill="white"/>
</clipPath>
</defs>
</svg>
