<svg width="20" height="20" viewBox="0 0 20 20" fill="none" xmlns="http://www.w3.org/2000/svg">
<path d="M11.6667 9.16683C11.6667 8.70659 12.0398 8.3335 12.5001 8.3335C12.9603 8.3335 13.3334 8.70659 13.3334 9.16683V10.8335C13.3334 11.2937 12.9603 11.6668 12.5001 11.6668C12.0398 11.6668 11.6667 11.2937 11.6667 10.8335V9.16683Z" stroke="#0371D8" stroke-width="1.5"/>
<path d="M11.6733 15.8359L10.9233 15.8337V15.8337L11.6733 15.8359ZM11.6782 14.1668L12.4282 14.169V14.1668H11.6782ZM2.62473 15.6905L2.09506 16.2215H2.09506L2.62473 15.6905ZM2.62473 4.30981L2.09506 3.77882L2.09506 3.77882L2.62473 4.30981ZM2.46098 8.54488L2.09531 9.19969H2.09531L2.46098 8.54488ZM1.67556 7.49139L0.926224 7.45988L1.67556 7.49139ZM2.46098 11.4554L2.09531 10.8006L2.09531 10.8006L2.46098 11.4554ZM1.67556 12.5089L2.4249 12.4774L1.67556 12.5089ZM17.5392 8.54488L17.9049 9.19969L17.5392 8.54488ZM18.3246 7.49139L19.0739 7.45988V7.45988L18.3246 7.49139ZM17.3754 4.30981L17.9051 3.77882V3.77882L17.3754 4.30981ZM17.5392 11.4554L17.1735 12.1103L17.1735 12.1103L17.5392 11.4554ZM18.3246 12.5089L19.0739 12.5404V12.5404L18.3246 12.5089ZM17.3754 15.6905L17.9051 16.2215L17.3754 15.6905ZM18.2865 11.9435L18.9409 11.5771L18.9409 11.5771L18.2865 11.9435ZM18.2865 8.05685L18.9409 8.4232L18.9409 8.42319L18.2865 8.05685ZM1.7137 11.9435L1.05926 11.5771H1.05926L1.7137 11.9435ZM1.7137 8.05685L2.36814 7.69051L2.36814 7.69051L1.7137 8.05685ZM11.6782 5.8335H12.4282L12.4282 5.83132L11.6782 5.8335ZM11.6721 3.74896L10.9221 3.75113V3.75113L11.6721 3.74896ZM13.7732 3.34925L13.7926 2.5995L13.7732 3.34925ZM14.1948 16.637L14.2264 17.3863H14.2264L14.1948 16.637ZM11.5496 16.5452L11.0201 16.0141L11.0201 16.0141L11.5496 16.5452ZM12.4233 15.8381L12.4282 14.169L10.9282 14.1647L10.9233 15.8337L12.4233 15.8381ZM12.5136 14.0835C12.5625 14.0835 12.599 14.1226 12.599 14.1668H14.099C14.099 13.2906 13.3874 12.5835 12.5136 12.5835V14.0835ZM12.5136 12.5835C11.6397 12.5835 10.9282 13.2906 10.9282 14.1668H12.4282C12.4282 14.1226 12.4646 14.0835 12.5136 14.0835V12.5835ZM8.32926 4.0835H11.2544V2.5835H8.32926V4.0835ZM10.84 15.9168H8.32926V17.4168H10.84V15.9168ZM8.32926 15.9168C6.73285 15.9168 5.6108 15.9152 4.76227 15.8014C3.93512 15.6905 3.48112 15.4854 3.1544 15.1595L2.09506 16.2215C2.74708 16.8719 3.57008 17.155 4.56289 17.2881C5.5343 17.4184 6.77515 17.4168 8.32926 17.4168V15.9168ZM8.32926 2.5835C6.77515 2.5835 5.5343 2.58191 4.56289 2.71219C3.57008 2.84534 2.74708 3.12842 2.09506 3.77882L3.1544 4.8408C3.48112 4.51489 3.93512 4.30981 4.76227 4.19888C5.6108 4.08508 6.73285 4.0835 8.32926 4.0835V2.5835ZM2.09531 9.19969C2.37888 9.35805 2.56681 9.65818 2.56681 10.0002H4.06681C4.06681 9.0916 3.56437 8.30203 2.82666 7.89006L2.09531 9.19969ZM2.4249 7.52289C2.48986 5.97787 2.70139 5.29268 3.1544 4.8408L2.09506 3.77882C1.20029 4.67137 0.992025 5.89478 0.926224 7.45988L2.4249 7.52289ZM2.56681 10.0002C2.56681 10.3421 2.37888 10.6423 2.09531 10.8006L2.82666 12.1103C3.56437 11.6983 4.06681 10.9087 4.06681 10.0002H2.56681ZM0.926224 12.5404C0.992025 14.1055 1.20029 15.329 2.09506 16.2215L3.1544 15.1595C2.70139 14.7076 2.48986 14.0225 2.4249 12.4774L0.926224 12.5404ZM17.4334 10.0002C17.4334 9.65818 17.6213 9.35805 17.9049 9.19969L17.1735 7.89006C16.4358 8.30203 15.9334 9.0916 15.9334 10.0002H17.4334ZM19.0739 7.45988C19.0081 5.89478 18.7999 4.67137 17.9051 3.77882L16.8458 4.8408C17.2988 5.29268 17.5103 5.97787 17.5753 7.52289L19.0739 7.45988ZM17.9049 10.8006C17.6213 10.6423 17.4334 10.3421 17.4334 10.0002H15.9334C15.9334 10.9087 16.4358 11.6983 17.1735 12.1103L17.9049 10.8006ZM17.5753 12.4774C17.5103 14.0225 17.2988 14.7076 16.8458 15.1595L17.9051 16.2215C18.7999 15.329 19.0081 14.1055 19.0739 12.5404L17.5753 12.4774ZM17.1735 12.1103C17.4115 12.2431 17.5625 12.3278 17.6635 12.3915C17.6867 12.4061 17.7037 12.4174 17.7158 12.4259C17.7282 12.4346 17.7326 12.4383 17.7316 12.4375C17.731 12.437 17.7199 12.4279 17.7037 12.4101C17.6877 12.3927 17.6598 12.3594 17.632 12.3098L18.9409 11.5771C18.8609 11.4343 18.7551 11.3375 18.6885 11.2824C18.6157 11.2221 18.5364 11.1687 18.4638 11.1228C18.3205 11.0324 18.1267 10.9245 17.9049 10.8006L17.1735 12.1103ZM19.0739 12.5404C19.0799 12.3998 19.087 12.246 19.0813 12.1162C19.0755 11.9843 19.0548 11.7807 18.9409 11.5771L17.632 12.3098C17.6033 12.2586 17.5907 12.2146 17.5854 12.1902C17.5808 12.1687 17.5818 12.1621 17.5827 12.1821C17.5836 12.2017 17.5838 12.2333 17.5825 12.2856C17.5811 12.3377 17.5786 12.3985 17.5753 12.4774L19.0739 12.5404ZM17.9049 9.19969C18.1267 9.07581 18.3205 8.96789 18.4638 8.87749C18.5364 8.83167 18.6157 8.77825 18.6885 8.71796C18.7551 8.66284 18.8609 8.56602 18.9409 8.4232L17.632 7.6905C17.6598 7.64089 17.6877 7.60758 17.7037 7.59018C17.7199 7.57246 17.731 7.5633 17.7316 7.56283C17.7326 7.56203 17.7282 7.56573 17.7158 7.57439C17.7037 7.58288 17.6867 7.59419 17.6635 7.60882C17.5625 7.67253 17.4115 7.75718 17.1735 7.89006L17.9049 9.19969ZM17.5753 7.52289C17.5786 7.60178 17.5811 7.66261 17.5825 7.71469C17.5838 7.76702 17.5836 7.79859 17.5827 7.81823C17.5818 7.83819 17.5808 7.83159 17.5854 7.81012C17.5907 7.78569 17.6033 7.74175 17.632 7.69051L18.9409 8.42319C19.0548 8.21965 19.0755 8.01605 19.0813 7.88415C19.087 7.75429 19.0799 7.60053 19.0739 7.45988L17.5753 7.52289ZM2.09531 10.8006C1.87347 10.9245 1.67967 11.0324 1.53637 11.1228C1.46373 11.1687 1.38442 11.2221 1.31164 11.2824C1.2451 11.3375 1.13921 11.4343 1.05926 11.5771L2.36814 12.3098C2.34037 12.3594 2.31243 12.3927 2.29649 12.4101C2.28025 12.4279 2.26912 12.437 2.26856 12.4375C2.26759 12.4383 2.27201 12.4346 2.28438 12.4259C2.29651 12.4174 2.31347 12.4061 2.33666 12.3915C2.43766 12.3278 2.5887 12.2431 2.82666 12.1103L2.09531 10.8006ZM2.4249 12.4774C2.42158 12.3985 2.41905 12.3377 2.4177 12.2856C2.41636 12.2333 2.41659 12.2017 2.41745 12.1821C2.41833 12.1621 2.41936 12.1687 2.41472 12.1902C2.40944 12.2146 2.39683 12.2586 2.36814 12.3098L1.05926 11.5771C0.945325 11.7807 0.924701 11.9843 0.918899 12.1162C0.913187 12.246 0.920312 12.3998 0.926224 12.5404L2.4249 12.4774ZM2.82666 7.89006C2.5887 7.75718 2.43765 7.67253 2.33666 7.60882C2.31347 7.59419 2.29651 7.58288 2.28438 7.57439C2.27201 7.56573 2.26759 7.56203 2.26856 7.56283C2.26912 7.5633 2.28026 7.57246 2.29649 7.59018C2.31243 7.60758 2.34037 7.6409 2.36814 7.69051L1.05926 8.42319C1.13921 8.56602 1.2451 8.66283 1.31164 8.71796C1.38442 8.77825 1.46373 8.83167 1.53637 8.87749C1.67967 8.96789 1.87347 9.07581 2.09531 9.19969L2.82666 7.89006ZM0.926224 7.45988C0.920312 7.60053 0.913187 7.75429 0.918899 7.88415C0.924701 8.01605 0.945325 8.21966 1.05926 8.42319L2.36814 7.69051C2.39683 7.74175 2.40944 7.78568 2.41472 7.81012C2.41936 7.83159 2.41833 7.83819 2.41745 7.81823C2.41659 7.79859 2.41636 7.76702 2.4177 7.71469C2.41905 7.66261 2.42158 7.60178 2.4249 7.52289L0.926224 7.45988ZM12.4282 5.83132L12.4221 3.74678L10.9221 3.75113L10.9282 5.83567L12.4282 5.83132ZM12.5136 5.91683C12.4646 5.91683 12.4282 5.87776 12.4282 5.8335H10.9282C10.9282 6.70971 11.6397 7.41683 12.5136 7.41683V5.91683ZM12.599 5.8335C12.599 5.87776 12.5625 5.91683 12.5136 5.91683V7.41683C13.3874 7.41683 14.099 6.70971 14.099 5.8335H12.599ZM12.599 3.76365V5.8335H14.099V3.76365H12.599ZM13.7539 4.099C15.5808 4.14612 16.3491 4.3454 16.8458 4.8408L17.9051 3.77882C16.9389 2.81499 15.5781 2.64555 13.7926 2.5995L13.7539 4.099ZM14.099 3.76365C14.099 3.94997 13.9455 4.10394 13.7539 4.099L13.7926 2.5995C13.135 2.58254 12.599 3.11232 12.599 3.76365H14.099ZM11.2544 4.0835C11.073 4.0835 10.9226 3.9366 10.9221 3.75113L12.4221 3.74678C12.4202 3.10202 11.8962 2.5835 11.2544 2.5835V4.0835ZM14.2264 17.3863C15.7903 17.3202 17.0125 17.1119 17.9051 16.2215L16.8458 15.1595C16.3931 15.611 15.7067 15.8224 14.1631 15.8876L14.2264 17.3863ZM12.599 14.1668V15.8139H14.099V14.1668H12.599ZM10.9233 15.8337C10.923 15.9345 10.9228 16.0099 10.921 16.0739C10.9191 16.1382 10.9162 16.1724 10.9138 16.1899C10.9114 16.2069 10.9122 16.1877 10.9273 16.1512C10.9449 16.1088 10.9752 16.0589 11.0201 16.0141L12.0792 17.0763C12.3026 16.8536 12.3729 16.5901 12.3998 16.3939C12.4238 16.2192 12.4228 16.0128 12.4233 15.8381L10.9233 15.8337ZM10.84 17.4168C11.0147 17.4168 11.2211 17.4184 11.3958 17.395C11.5921 17.3686 11.8558 17.2991 12.0792 17.0763L11.0201 16.0141C11.065 15.9693 11.1149 15.9392 11.1575 15.9218C11.194 15.9067 11.2132 15.906 11.1962 15.9083C11.1786 15.9107 11.1444 15.9135 11.0801 15.9152C11.0161 15.9168 10.9407 15.9168 10.84 15.9168V17.4168ZM14.1631 15.8876C14.062 15.8919 13.9869 15.895 13.9232 15.896C13.8592 15.897 13.8262 15.8954 13.8102 15.8938C13.7951 15.8923 13.8166 15.8927 13.8558 15.9077C13.9013 15.9251 13.9518 15.9548 13.9963 15.9974L12.9583 17.0802C13.1896 17.302 13.4585 17.3665 13.6635 17.3866C13.8426 17.4043 14.0522 17.3936 14.2264 17.3863L14.1631 15.8876ZM12.599 15.8139C12.599 15.9926 12.5973 16.2045 12.6221 16.3837C12.6502 16.5864 12.7245 16.8561 12.9583 17.0802L13.9963 15.9974C14.0424 16.0416 14.0743 16.092 14.0932 16.1363C14.1093 16.1743 14.1103 16.1947 14.1079 16.1777C14.1055 16.1602 14.1024 16.1255 14.1007 16.0597C14.099 15.9943 14.099 15.9171 14.099 15.8139H12.599Z" fill="#0371D8"/>
</svg>
