<svg width="20" height="20" viewBox="0 0 20 20" fill="none" xmlns="http://www.w3.org/2000/svg">
<path d="M14.6875 17.5001C15.2222 17.0249 16.0278 17.0249 16.5625 17.5001C16.9258 17.823 17.5 17.5652 17.5 17.0791V2.92099C17.5 2.43497 16.9258 2.17709 16.5625 2.49999C16.0278 2.97524 15.2222 2.97524 14.6875 2.49999C14.1528 2.02474 13.3472 2.02474 12.8125 2.49999C12.2778 2.97524 11.4722 2.97524 10.9375 2.49999C10.4028 2.02474 9.59716 2.02474 9.0625 2.49999C8.52784 2.97524 7.72216 2.97524 7.1875 2.49999C6.65284 2.02474 5.84716 2.02474 5.3125 2.49999C4.77784 2.97524 3.97216 2.97524 3.4375 2.49999C3.07424 2.17709 2.5 2.43497 2.5 2.92099V17.0791C2.5 17.5652 3.07424 17.823 3.4375 17.5001C3.97216 17.0249 4.77784 17.0249 5.3125 17.5001C5.84716 17.9754 6.65284 17.9754 7.1875 17.5001C7.72216 17.0249 8.52784 17.0249 9.0625 17.5001C9.59716 17.9754 10.4028 17.9754 10.9375 17.5001C11.4722 17.0249 12.2778 17.0249 12.8125 17.5001C13.3472 17.9754 14.1528 17.9754 14.6875 17.5001Z" stroke="#197DDC" stroke-width="1.5"/>
<path d="M6.25 12.9165H13.75" stroke="#197DDC" stroke-width="1.5" stroke-linecap="round"/>
<path d="M6.25 10H13.75" stroke="#197DDC" stroke-width="1.5" stroke-linecap="round"/>
<path d="M6.25 7.0835H13.75" stroke="#197DDC" stroke-width="1.5" stroke-linecap="round"/>
</svg>
