<svg width="20" height="20" viewBox="0 0 20 20" fill="none" xmlns="http://www.w3.org/2000/svg">
<path d="M16.9264 10.5392L17.3577 8.92936C17.8613 7.05012 18.1131 6.1105 17.9235 5.29736C17.7738 4.65531 17.437 4.07207 16.9558 3.6214C16.3464 3.05063 15.4068 2.79886 13.5276 2.29532C11.6484 1.79178 10.7087 1.54001 9.89559 1.72961C9.25354 1.87932 8.67031 2.21605 8.21963 2.69723C7.73095 3.21899 7.47611 3.98281 7.09688 5.37118C7.03319 5.60437 6.96598 5.85518 6.89357 6.12542L6.89356 6.12548L6.46219 7.73536C5.95865 9.61459 5.70688 10.5542 5.89648 11.3674C6.04619 12.0094 6.38292 12.5926 6.8641 13.0433C7.4735 13.6141 8.41311 13.8659 10.2923 14.3694L10.2924 14.3694C11.9862 14.8233 12.9167 15.0726 13.6792 14.9785C13.7627 14.9682 13.8441 14.9538 13.9243 14.9351C14.5664 14.7854 15.1496 14.4487 15.6003 13.9675C16.1711 13.3581 16.4228 12.4185 16.9264 10.5392Z" stroke="#0371D8" stroke-width="1.5"/>
<path d="M13.6791 14.9784C13.5054 15.5105 13.1999 15.9918 12.7891 16.3766C12.1797 16.9473 11.2401 17.1991 9.36084 17.7026C7.48161 18.2062 6.54199 18.4579 5.72885 18.2683C5.0868 18.1186 4.50356 17.7819 4.05289 17.3007C3.48212 16.6913 3.23035 15.7517 2.72681 13.8725L2.29544 12.2626C1.7919 10.3834 1.54013 9.44375 1.72973 8.6306C1.87944 7.98856 2.21617 7.40532 2.69735 6.95464C3.30675 6.38387 4.24637 6.13211 6.1256 5.62857C6.48113 5.5333 6.80303 5.44705 7.0968 5.37109" stroke="#0371D8" stroke-width="1.5"/>
<path d="M9.81409 8.3335L13.8388 9.41191" stroke="#0371D8" stroke-width="1.5" stroke-linecap="round"/>
<path d="M9.16663 10.748L11.5814 11.3951" stroke="#0371D8" stroke-width="1.5" stroke-linecap="round"/>
</svg>
