<svg width="20" height="20" viewBox="0 0 20 20" fill="none" xmlns="http://www.w3.org/2000/svg">
<path d="M13.3333 3.33496C15.1459 3.34505 16.1274 3.42543 16.7678 4.06575C17.5 4.79798 17.5 5.97649 17.5 8.33351V13.3335C17.5 15.6905 17.5 16.869 16.7678 17.6013C16.0355 18.3335 14.857 18.3335 12.5 18.3335H7.5C5.14298 18.3335 3.96447 18.3335 3.23223 17.6013C2.5 16.869 2.5 15.6905 2.5 13.3335V8.33351C2.5 5.97649 2.5 4.79798 3.23223 4.06575C3.87255 3.42543 4.85414 3.34505 6.66667 3.33496" stroke="#197DDC" stroke-width="1.5"/>
<path d="M8.75 11.6665L14.1667 11.6665" stroke="#197DDC" stroke-width="1.5" stroke-linecap="round"/>
<path d="M5.83325 11.6665H6.24992" stroke="#197DDC" stroke-width="1.5" stroke-linecap="round"/>
<path d="M5.83325 8.75H6.24992" stroke="#197DDC" stroke-width="1.5" stroke-linecap="round"/>
<path d="M5.83325 14.5835H6.24992" stroke="#197DDC" stroke-width="1.5" stroke-linecap="round"/>
<path d="M8.75 8.75H14.1667" stroke="#197DDC" stroke-width="1.5" stroke-linecap="round"/>
<path d="M8.75 14.5835H14.1667" stroke="#197DDC" stroke-width="1.5" stroke-linecap="round"/>
<path d="M6.66675 2.9165C6.66675 2.22615 7.22639 1.6665 7.91675 1.6665H12.0834C12.7738 1.6665 13.3334 2.22615 13.3334 2.9165V3.74984C13.3334 4.44019 12.7738 4.99984 12.0834 4.99984H7.91675C7.22639 4.99984 6.66675 4.44019 6.66675 3.74984V2.9165Z" stroke="#197DDC" stroke-width="1.5"/>
</svg>
