<svg width="15" height="14" viewBox="0 0 15 14" fill="none" xmlns="http://www.w3.org/2000/svg">
<path d="M12.1817 7.37741L12.4837 6.2505C12.8362 4.93504 13.0124 4.2773 12.8797 3.7081C12.7749 3.25867 12.5392 2.8504 12.2024 2.53493C11.7758 2.13539 11.118 1.95915 9.80258 1.60668C8.48711 1.2542 7.82938 1.07796 7.26018 1.21068C6.81075 1.31547 6.40248 1.55118 6.08701 1.88801C5.74493 2.25324 5.56654 2.78792 5.30108 3.75978C5.2565 3.92301 5.20945 4.09857 5.15877 4.28773L5.15875 4.28779L4.8568 5.4147C4.50432 6.73017 4.32808 7.3879 4.4608 7.9571C4.56559 8.40653 4.80131 8.8148 5.13813 9.13027C5.56471 9.52981 6.22245 9.70605 7.53791 10.0585C8.72359 10.3762 9.37492 10.5508 9.90871 10.4849C9.96713 10.4777 10.0242 10.4676 10.0803 10.4545C10.5297 10.3497 10.938 10.114 11.2535 9.77719C11.653 9.35061 11.8293 8.69288 12.1817 7.37741Z" stroke="#197DDC"/>
<path d="M9.90862 10.4849C9.787 10.8573 9.57315 11.1943 9.28561 11.4636C8.85902 11.8631 8.20129 12.0394 6.88583 12.3918C5.57037 12.7443 4.91263 12.9206 4.34343 12.7878C3.894 12.6831 3.48573 12.4473 3.17026 12.1105C2.77072 11.6839 2.59448 11.0262 2.24201 9.71073L1.94005 8.58382C1.58757 7.26836 1.41133 6.61062 1.54405 6.04142C1.64885 5.59199 1.88456 5.18372 2.22138 4.86825C2.64797 4.46871 3.3057 4.29247 4.62116 3.94C4.87003 3.87331 5.09536 3.81294 5.301 3.75977" stroke="#197DDC"/>
<path d="M7.20312 5.8335L10.0204 6.58839" stroke="#197DDC" stroke-linecap="round"/>
<path d="M6.74988 7.52344L8.44025 7.97637" stroke="#197DDC" stroke-linecap="round"/>
</svg>
