<svg width="20" height="20" viewBox="0 0 20 20" fill="none" xmlns="http://www.w3.org/2000/svg">
<g id="Linear / Notifications / Bell ">
<path id="Vector" d="M15.8333 8.08659V7.49984C15.8333 4.27818 13.2216 1.6665 9.99997 1.6665C6.77831 1.6665 4.16664 4.27818 4.16664 7.49984V8.08659C4.16664 8.79075 3.95821 9.47915 3.56761 10.065L2.61044 11.5008C1.73616 12.8122 2.4036 14.5948 3.92419 15.0095C7.90207 16.0943 12.0979 16.0943 16.0758 15.0095C17.5963 14.5948 18.2638 12.8122 17.3895 11.5008L16.4323 10.065C16.0417 9.47915 15.8333 8.79075 15.8333 8.08659Z" stroke="white" stroke-width="1.5"/>
<path id="Vector_2" d="M6.25 15.8335C6.79586 17.29 8.26871 18.3335 10 18.3335C11.7313 18.3335 13.2041 17.29 13.75 15.8335" stroke="white" stroke-width="1.5" stroke-linecap="round"/>
</g>
</svg>
