<svg width="16" height="16" viewBox="0 0 16 16" fill="none" xmlns="http://www.w3.org/2000/svg">
<path d="M7.3584 2.87745L7.79107 3.65273C8.18154 4.35239 8.02479 5.27021 7.40981 5.8852C7.40981 5.8852 7.40981 5.8852 7.40981 5.8852C7.40969 5.88532 6.66396 6.63127 8.01635 7.98366C9.36808 9.33539 10.114 8.59101 10.1148 8.5902C10.1148 8.59017 10.1148 8.59018 10.1148 8.59016C10.7298 7.97521 11.6476 7.81847 12.3473 8.20893L13.1226 8.64161C14.179 9.23122 14.3038 10.7128 13.3752 11.6415C12.8172 12.1995 12.1336 12.6337 11.3779 12.6623C10.1059 12.7105 7.94552 12.3886 5.77847 10.2215C3.61142 8.05448 3.28948 5.89415 3.3377 4.62206C3.36635 3.8664 3.80054 3.18282 4.35854 2.62482C5.28717 1.69619 6.76878 1.82096 7.3584 2.87745Z" stroke="#197DDC" stroke-width="1.5" stroke-linecap="round"/>
</svg>
