<svg width="15" height="16" viewBox="0 0 15 16" fill="none" xmlns="http://www.w3.org/2000/svg">
<g clip-path="url(#clip0_1367_7132)">
<path d="M7.5 9.5C6.30653 9.5 5.16193 9.02589 4.31802 8.18198C3.47411 7.33807 3 6.19347 3 5C3 3.80653 3.47411 2.66193 4.31802 1.81802C5.16193 0.974106 6.30653 0.5 7.5 0.5C8.69347 0.5 9.83807 0.974106 10.682 1.81802C11.5259 2.66193 12 3.80653 12 5C12 6.19347 11.5259 7.33807 10.682 8.18198C9.83807 9.02589 8.69347 9.5 7.5 9.5ZM7.5 7.25C8.09674 7.25 8.66903 7.01295 9.09099 6.59099C9.51295 6.16903 9.75 5.59674 9.75 5C9.75 4.40326 9.51295 3.83097 9.09099 3.40901C8.66903 2.98705 8.09674 2.75 7.5 2.75C6.90326 2.75 6.33097 2.98705 5.90901 3.40901C5.48705 3.83097 5.25 4.40326 5.25 5C5.25 5.59674 5.48705 6.16903 5.90901 6.59099C6.33097 7.01295 6.90326 7.25 7.5 7.25ZM10.5 9.3125V15.5L7.5 12.5L4.5 15.5V9.3125C5.3791 9.92855 6.42654 10.259 7.5 10.259C8.57346 10.259 9.6209 9.92855 10.5 9.3125Z" fill="#0371D8"/>
</g>
<defs>
<clipPath id="clip0_1367_7132">
<rect width="15" height="15" fill="white" transform="translate(0 0.5)"/>
</clipPath>
</defs>
</svg>
