<svg width="20" height="20" viewBox="0 0 20 20" fill="none" xmlns="http://www.w3.org/2000/svg">
<g clip-path="url(#clip0_2182_8766)">
<path d="M1.66669 10.0001C1.66669 6.07171 1.66669 4.10752 2.88708 2.88714C4.10746 1.66675 6.07165 1.66675 10 1.66675C13.9284 1.66675 15.8926 1.66675 17.113 2.88714C18.3334 4.10752 18.3334 6.07171 18.3334 10.0001C18.3334 13.9285 18.3334 15.8926 17.113 17.113C15.8926 18.3334 13.9284 18.3334 10 18.3334C6.07165 18.3334 4.10746 18.3334 2.88708 17.113C1.66669 15.8926 1.66669 13.9285 1.66669 10.0001Z" stroke="#0371D8" stroke-width="1.5"/>
<path d="M14.1667 12.5H12.0834H10" stroke="#0371D8" stroke-width="1.5" stroke-linecap="round"/>
<path d="M5.83331 8.33325L6.02865 8.49603C7.09672 9.38609 7.63075 9.83112 7.63075 10.4166C7.63075 11.0021 7.09672 11.4471 6.02865 12.3371L5.83331 12.4999" stroke="#0371D8" stroke-width="1.5" stroke-linecap="round"/>
</g>
<defs>
<clipPath id="clip0_2182_8766">
<rect width="20" height="20" rx="5" fill="white"/>
</clipPath>
</defs>
</svg>
