<svg width="20" height="20" viewBox="0 0 20 20" fill="none" xmlns="http://www.w3.org/2000/svg">
<path d="M3.06647 9.44444H2.31647H3.06647ZM3.06647 10.8333L2.53823 11.3657C2.83064 11.6559 3.3023 11.6559 3.59471 11.3657L3.06647 10.8333ZM4.99455 9.97685C5.2886 9.68511 5.29046 9.21024 4.99872 8.9162C4.70698 8.62216 4.23211 8.6203 3.93807 8.91204L4.99455 9.97685ZM2.19487 8.91204C1.90083 8.6203 1.42596 8.62216 1.13422 8.9162C0.842476 9.21024 0.844342 9.68511 1.13838 9.97685L2.19487 8.91204ZM15.4064 6.22612C15.6234 6.57899 16.0853 6.68918 16.4381 6.47225C16.791 6.25532 16.9012 5.79341 16.6843 5.44054L15.4064 6.22612ZM10.0657 1.75C5.79148 1.75 2.31647 5.18938 2.31647 9.44444H3.81647C3.81647 6.02889 6.60877 3.25 10.0657 3.25V1.75ZM2.31647 9.44444L2.31647 10.8333H3.81647L3.81647 9.44444L2.31647 9.44444ZM3.59471 11.3657L4.99455 9.97685L3.93807 8.91204L2.53823 10.3009L3.59471 11.3657ZM3.59471 10.3009L2.19487 8.91204L1.13838 9.97685L2.53823 11.3657L3.59471 10.3009ZM16.6843 5.44054C15.3237 3.22738 12.8676 1.75 10.0657 1.75V3.25C12.3287 3.25 14.3093 4.44155 15.4064 6.22612L16.6843 5.44054Z" fill="#1DB5E5"/>
<path d="M16.9283 9.1665L17.4555 8.63309C17.1633 8.34431 16.6932 8.34431 16.4011 8.63309L16.9283 9.1665ZM14.9959 10.022C14.7013 10.3132 14.6985 10.788 14.9897 11.0826C15.2809 11.3772 15.7557 11.38 16.0503 11.0888L14.9959 10.022ZM17.8063 11.0888C18.1009 11.38 18.5757 11.3772 18.8669 11.0826C19.1581 10.788 19.1553 10.3132 18.8607 10.022L17.8063 11.0888ZM4.53803 13.7726C4.32049 13.4201 3.8584 13.3107 3.5059 13.5283C3.15341 13.7458 3.044 14.2079 3.26153 14.5604L4.53803 13.7726ZM9.90232 18.2498C14.1886 18.2498 17.6783 14.8131 17.6783 10.5554H16.1783C16.1783 13.9683 13.3767 16.7498 9.90232 16.7498V18.2498ZM17.6783 10.5554V9.1665H16.1783V10.5554H17.6783ZM16.4011 8.63309L14.9959 10.022L16.0503 11.0888L17.4555 9.69992L16.4011 8.63309ZM16.4011 9.69992L17.8063 11.0888L18.8607 10.022L17.4555 8.63309L16.4011 9.69992ZM3.26153 14.5604C4.62743 16.7737 7.09205 18.2498 9.90232 18.2498V16.7498C7.62825 16.7498 5.63923 15.557 4.53803 13.7726L3.26153 14.5604Z" fill="#1DB5E5"/>
</svg>
