<svg width="73" height="92" viewBox="0 0 73 92" fill="none" xmlns="http://www.w3.org/2000/svg">
<path d="M57.3843 18.2133L57.468 17.9009C57.761 16.8302 58.079 15.9993 58.4218 15.4082C58.7704 14.8186 59.1664 14.3731 59.61 14.0717C60.0535 13.7702 60.5561 13.524 61.1176 13.333C61.5389 13.1832 61.9254 13.0142 62.2771 12.8261C62.6288 12.638 62.9305 12.4069 63.1823 12.1329C63.4357 11.8527 63.6157 11.5135 63.7224 11.1152C63.8357 10.6925 63.8404 10.2964 63.7364 9.92709C63.6325 9.55776 63.4429 9.24428 63.1676 8.98664C62.898 8.73054 62.5711 8.55099 62.1867 8.448C61.8138 8.34809 61.4372 8.34239 61.0569 8.43092C60.6782 8.51332 60.3367 8.69764 60.0325 8.98388C59.73 9.264 59.5028 9.65295 59.3509 10.1508L55.84 9.21002C56.1971 7.9923 56.7433 7.05512 57.4788 6.39849C58.2159 5.73573 59.0672 5.32357 60.0328 5.16202C61.0001 4.99433 62.0028 5.0496 63.0412 5.32783C64.1828 5.63372 65.1383 6.10646 65.9077 6.74603C66.6787 7.37947 67.2119 8.14293 67.5075 9.03642C67.803 9.9299 67.8071 10.9128 67.5198 11.985C67.3277 12.7018 67.0451 13.3091 66.672 13.8067C66.3062 14.2997 65.868 14.7076 65.3572 15.0305C64.8481 15.3472 64.2779 15.6048 63.6468 15.8034C63.1164 15.97 62.6631 16.1703 62.2868 16.4044C61.9162 16.64 61.6042 16.9438 61.3508 17.3159C61.1031 17.6895 60.896 18.1758 60.7293 18.7747L60.6456 19.0872L57.3843 18.2133ZM57.512 24.5518C56.9383 24.3981 56.5053 24.0522 56.2129 23.5142C55.9279 22.9716 55.8695 22.3977 56.0378 21.7927C56.1929 21.1907 56.5288 20.7291 57.0453 20.4078C57.5675 20.088 58.1155 20.005 58.6891 20.1587C59.2341 20.3048 59.6557 20.6476 59.9538 21.1871C60.2519 21.7267 60.3234 22.2975 60.1683 22.8995C60.0542 23.3023 59.8545 23.6461 59.5691 23.9308C59.2911 24.2109 58.9702 24.4106 58.6062 24.5298C58.2439 24.6429 57.8792 24.6502 57.512 24.5518Z" fill="#0371D8"/>
<path d="M6.5 55.4644C6.5 44.0966 6.5 38.4127 10.0147 34.8811C13.5294 31.3496 19.1863 31.3496 30.5 31.3496H42.5C53.8137 31.3496 59.4706 31.3496 62.9853 34.8811C66.5 38.4127 66.5 44.0966 66.5 55.4644C66.5 66.8323 66.5 72.5162 62.9853 76.0477C59.4706 79.5793 53.8137 79.5793 42.5 79.5793H30.5C19.1863 79.5793 13.5294 79.5793 10.0147 76.0477C6.5 72.5162 6.5 66.8323 6.5 55.4644Z" fill="#DCEEFF" stroke="#0371D8" stroke-width="3"/>
<path d="M36.4997 49.4355V61.493M31.3025 52.4499L41.6948 58.4786M41.6941 52.4499L31.3018 58.4786" stroke="#0371D8" stroke-width="3" stroke-linecap="round"/>
<path d="M20.697 49.4355V61.493M15.4997 52.4499L25.892 58.4786M25.8913 52.4499L15.499 58.4786" stroke="#0371D8" stroke-width="3" stroke-linecap="round"/>
<path d="M52.3047 49.4355V61.493M47.1074 52.4499L57.4997 58.4786M57.499 52.4499L47.1067 58.4786" stroke="#0371D8" stroke-width="3" stroke-linecap="round"/>
</svg>
