<svg width="73" height="72" viewBox="0 0 73 72" fill="none" xmlns="http://www.w3.org/2000/svg">
<path d="M36.5 12H30.5C19.1863 12 13.5294 12 10.0147 15.5147C6.5 19.0294 6.5 24.6863 6.5 36C6.5 47.3137 6.5 52.9706 10.0147 56.4853C13.5294 60 19.1863 60 30.5 60H36.5M45.5 12.0028C54.8429 12.0301 59.796 12.3254 62.9853 15.5147C66.5 19.0294 66.5 24.6863 66.5 36C66.5 47.3137 66.5 52.9706 62.9853 56.4853C59.796 59.6746 54.8429 59.9699 45.5 59.9972" stroke="#197DDC" stroke-width="3" stroke-linecap="round"/>
<path d="M27.5 36C27.5 37.6569 26.1569 39 24.5 39C22.8431 39 21.5 37.6569 21.5 36C21.5 34.3431 22.8431 33 24.5 33C26.1569 33 27.5 34.3431 27.5 36Z" fill="#197DDC"/>
<path d="M39.5 36C39.5 37.6569 38.1569 39 36.5 39C34.8431 39 33.5 37.6569 33.5 36C33.5 34.3431 34.8431 33 36.5 33C38.1569 33 39.5 34.3431 39.5 36Z" fill="#197DDC"/>
<path d="M45.5 6V66" stroke="#197DDC" stroke-width="3" stroke-linecap="round"/>
</svg>
