<svg width="20" height="20" viewBox="0 0 20 20" fill="none" xmlns="http://www.w3.org/2000/svg">
<path d="M16.6667 5L2.50008 5" stroke="#197DDC" stroke-width="1.5" stroke-linecap="round"/>
<path d="M8.33325 13.3335H2.49992" stroke="#197DDC" stroke-width="1.5" stroke-linecap="round"/>
<path d="M7.5 9.1665H2.5" stroke="#197DDC" stroke-width="1.5" stroke-linecap="round"/>
<path d="M13.7416 13.5902L14.1866 12.9865L14.1866 12.9865L13.7416 13.5902ZM14.5833 8.4218L14.0474 8.94651C14.1884 9.09059 14.3816 9.1718 14.5833 9.1718C14.7849 9.1718 14.9781 9.09059 15.1191 8.94651L14.5833 8.4218ZM15.4249 13.5902L15.8698 14.194H15.8698L15.4249 13.5902ZM14.5833 14.0086L14.5833 13.2586H14.5833L14.5833 14.0086ZM14.1866 12.9865C13.6536 12.5936 12.975 12.0386 12.4371 11.4243C11.8759 10.7834 11.5833 10.2079 11.5833 9.76231H10.0833C10.0833 10.7772 10.692 11.7082 11.3086 12.4124C11.9484 13.1432 12.7241 13.7719 13.2967 14.1939L14.1866 12.9865ZM11.5833 9.76231C11.5833 8.87767 11.9747 8.44756 12.3381 8.31165C12.71 8.1726 13.3471 8.2313 14.0474 8.94651L15.1191 7.89709C14.132 6.88889 12.8941 6.50235 11.8128 6.90666C10.7231 7.31411 10.0833 8.41597 10.0833 9.76231H11.5833ZM15.8698 14.194C16.4425 13.7719 17.2181 13.1432 17.8579 12.4125C18.4745 11.7083 19.0833 10.7772 19.0833 9.76229H17.5833C17.5833 10.2079 17.2906 10.7834 16.7294 11.4243C16.1915 12.0387 15.5129 12.5936 14.9799 12.9865L15.8698 14.194ZM19.0833 9.76229C19.0833 8.41596 18.4434 7.31411 17.3537 6.90666C16.2725 6.50235 15.0345 6.88889 14.0474 7.89709L15.1191 8.94651C15.8194 8.2313 16.4565 8.1726 16.8284 8.31165C17.1918 8.44756 17.5833 8.87766 17.5833 9.76229H19.0833ZM13.2967 14.1939C13.6127 14.4268 14.0132 14.7586 14.5833 14.7586L14.5833 13.2586C14.5813 13.2586 14.5864 13.2588 14.5919 13.2603C14.5953 13.2613 14.5863 13.2594 14.5586 13.2444C14.5289 13.2283 14.4868 13.2022 14.4223 13.1574C14.3574 13.1122 14.2836 13.058 14.1866 12.9865L13.2967 14.1939ZM14.9799 12.9865C14.8829 13.058 14.8091 13.1122 14.7442 13.1574C14.6797 13.2022 14.6376 13.2283 14.6079 13.2444C14.5802 13.2594 14.5712 13.2613 14.5746 13.2603C14.5801 13.2588 14.5852 13.2586 14.5833 13.2586L14.5833 14.7586C15.1533 14.7586 15.5538 14.4268 15.8698 14.194L14.9799 12.9865Z" fill="#197DDC"/>
</svg>
