<svg width="13" height="12" viewBox="0 0 13 12" fill="none" xmlns="http://www.w3.org/2000/svg">
<path fill-rule="evenodd" clip-rule="evenodd" d="M6.25 1.375C3.83375 1.375 1.875 3.33375 1.875 5.75C1.875 8.16625 3.83375 10.125 6.25 10.125C8.66625 10.125 10.625 8.16625 10.625 5.75C10.625 3.33375 8.66625 1.375 6.25 1.375ZM1.125 5.75C1.125 2.91954 3.41954 0.625 6.25 0.625C9.08046 0.625 11.375 2.91954 11.375 5.75C11.375 7.03026 10.9056 8.20087 10.1294 9.0991L11.7652 10.7348C11.9116 10.8813 11.9116 11.1187 11.7652 11.2652C11.6187 11.4116 11.3813 11.4116 11.2348 11.2652L9.5991 9.62943C8.70087 10.4056 7.53026 10.875 6.25 10.875C3.41954 10.875 1.125 8.58046 1.125 5.75Z" fill="#858585"/>
</svg>
