<svg width="20" height="20" viewBox="0 0 20 20" fill="none" xmlns="http://www.w3.org/2000/svg">
<g clip-path="url(#clip0_1608_6328)">
<path d="M15.5297 13.0583L16.9601 8.76717C18.2097 5.01852 18.8344 3.14419 17.845 2.1548C16.8557 1.16541 14.9813 1.79018 11.2327 3.03973L6.94156 4.47011C3.91603 5.47861 2.40327 5.98287 1.97339 6.72232C1.56443 7.42577 1.56443 8.29458 1.97339 8.99803C2.40327 9.73749 3.91603 10.2417 6.94156 11.2503C7.42736 11.4122 7.67025 11.4931 7.87328 11.6291C8.07004 11.7608 8.23906 11.9298 8.37078 12.1266C8.5067 12.3296 8.58767 12.5725 8.7496 13.0583C9.7581 16.0838 10.2624 17.5966 11.0018 18.0265C11.7053 18.4354 12.5741 18.4354 13.2775 18.0265C14.017 17.5966 14.5212 16.0838 15.5297 13.0583Z" stroke="white" stroke-width="1.5"/>
<path d="M13.5976 7.46256C13.8921 7.1713 13.8947 6.69643 13.6034 6.40192C13.3122 6.10741 12.8373 6.10478 12.5428 6.39604L13.5976 7.46256ZM8.97344 12.0357L13.5976 7.46256L12.5428 6.39604L7.91868 10.9692L8.97344 12.0357Z" fill="white"/>
</g>
<defs>
<clipPath id="clip0_1608_6328">
<rect width="20" height="20" fill="white"/>
</clipPath>
</defs>
</svg>
