<svg width="20" height="20" viewBox="0 0 20 20" fill="none" xmlns="http://www.w3.org/2000/svg">
<path d="M6.5359 3.16827C8.2265 2.16709 9.0718 1.6665 10 1.6665C10.9282 1.6665 11.7735 2.16709 13.4641 3.16827L14.0359 3.50688C15.7265 4.50806 16.5718 5.00865 17.0359 5.83317C17.5 6.6577 17.5 7.65887 17.5 9.66122V10.3385C17.5 12.3408 17.5 13.342 17.0359 14.1665C16.5718 14.991 15.7265 15.4916 14.0359 16.4928L13.4641 16.8314C11.7735 17.8326 10.9282 18.3332 10 18.3332C9.0718 18.3332 8.2265 17.8326 6.5359 16.8314L5.9641 16.4928C4.2735 15.4916 3.4282 14.991 2.9641 14.1665C2.5 13.342 2.5 12.3408 2.5 10.3385V9.66122C2.5 7.65887 2.5 6.6577 2.9641 5.83317C3.4282 5.00865 4.2735 4.50806 5.9641 3.50688L6.5359 3.16827Z" stroke="#0371D8" stroke-width="1.5"/>
<circle cx="10" cy="10" r="2.5" stroke="#0371D8" stroke-width="1.5"/>
</svg>
