<svg width="15" height="15" viewBox="0 0 15 15" fill="none" xmlns="http://www.w3.org/2000/svg">
<path d="M8.61111 11.1111C8.61111 11.3309 8.54595 11.5457 8.42386 11.7284C8.30177 11.9111 8.12823 12.0535 7.92521 12.1376C7.72218 12.2217 7.49877 12.2437 7.28324 12.2009C7.0677 12.158 6.86972 12.0522 6.71433 11.8968C6.55894 11.7414 6.45311 11.5434 6.41024 11.3279C6.36737 11.1123 6.38937 10.8889 6.47347 10.6859C6.55757 10.4829 6.69998 10.3093 6.8827 10.1873C7.06542 10.0652 7.28024 10 7.5 10C7.79469 10 8.0773 10.1171 8.28568 10.3254C8.49405 10.5338 8.61111 10.8164 8.61111 11.1111ZM15 7.5C15 8.98336 14.5601 10.4334 13.736 11.6668C12.9119 12.9001 11.7406 13.8614 10.3701 14.4291C8.99968 14.9968 7.49168 15.1453 6.03682 14.8559C4.58197 14.5665 3.2456 13.8522 2.1967 12.8033C1.14781 11.7544 0.433503 10.418 0.144114 8.96318C-0.145275 7.50832 0.00324964 6.00032 0.570907 4.62987C1.13856 3.25943 2.09986 2.08809 3.33323 1.26398C4.56659 0.439867 6.01664 0 7.5 0C9.48845 0.00220571 11.3948 0.79309 12.8009 2.19914C14.2069 3.60518 14.9978 5.51155 15 7.5ZM13.3333 7.5C13.3333 6.34627 12.9912 5.21846 12.3502 4.25917C11.7093 3.29989 10.7982 2.55221 9.73232 2.1107C8.66642 1.66919 7.49353 1.55367 6.36198 1.77875C5.23042 2.00383 4.19102 2.5594 3.37521 3.37521C2.55941 4.19102 2.00384 5.23042 1.77876 6.36197C1.55368 7.49353 1.66919 8.66642 2.11071 9.73232C2.55222 10.7982 3.29989 11.7093 4.25918 12.3502C5.21846 12.9912 6.34628 13.3333 7.5 13.3333C9.04659 13.3317 10.5294 12.7166 11.623 11.623C12.7166 10.5294 13.3317 9.04659 13.3333 7.5ZM7.5 3.05556C5.81528 3.05556 4.44445 4.30139 4.44445 5.83333V6.11111C4.44445 6.33212 4.53224 6.54409 4.68852 6.70037C4.8448 6.85665 5.05677 6.94444 5.27778 6.94444C5.49879 6.94444 5.71076 6.85665 5.86704 6.70037C6.02332 6.54409 6.11111 6.33212 6.11111 6.11111V5.83333C6.11111 5.22083 6.73611 4.72222 7.5 4.72222C8.26389 4.72222 8.88889 5.22083 8.88889 5.83333C8.88889 6.44583 8.26389 6.94444 7.5 6.94444C7.27899 6.94444 7.06703 7.03224 6.91075 7.18852C6.75447 7.3448 6.66667 7.55676 6.66667 7.77778V8.33333C6.66617 8.53922 6.74191 8.738 6.87928 8.89135C7.01664 9.04471 7.20592 9.14178 7.41062 9.16387C7.61531 9.18595 7.82094 9.13148 7.98785 9.01095C8.15477 8.89042 8.27116 8.71236 8.31458 8.51111C9.60486 8.18611 10.5556 7.10903 10.5556 5.83333C10.5556 4.30139 9.18472 3.05556 7.5 3.05556Z" fill="#0371D8"/>
</svg>
