<svg width="25" height="24" viewBox="0 0 25 24" fill="none" xmlns="http://www.w3.org/2000/svg">
<path fill-rule="evenodd" clip-rule="evenodd" d="M13.1971 3.2962C15.3214 3.40061 17.3009 4.27663 18.8128 5.78956C20.4256 7.40328 21.3132 9.54835 21.3124 11.8295C21.3104 16.537 17.4782 20.3671 12.7705 20.3671C11.0002 20.3671 9.59334 19.8232 8.68496 19.328L4.15674 20.5152L5.3686 16.091C4.62108 14.7962 4.22775 13.3276 4.22836 11.8228C4.23025 7.11545 8.06216 3.28564 12.7704 3.28564L13.1971 3.2962ZM8.89474 17.7824L9.15403 17.9361C10.2441 18.5827 11.4936 18.9248 12.7676 18.9253H12.7705C16.6836 18.9253 19.8686 15.7419 19.8701 11.829C19.8709 9.93295 19.1331 8.15005 17.7926 6.80876C16.4522 5.46739 14.6696 4.72826 12.7733 4.72764C8.8571 4.72764 5.67215 7.91073 5.67058 11.8232C5.67005 13.1641 6.04539 14.47 6.75608 15.5997L6.92489 15.8683L6.20766 18.4869L8.89474 17.7824ZM17.0738 13.8598C17.0205 13.7707 16.8782 13.7174 16.6648 13.6106C16.4513 13.5038 15.402 12.9877 15.2064 12.9165C15.0107 12.8454 14.8684 12.8098 14.7262 13.0233C14.5839 13.2368 14.1749 13.7174 14.0503 13.8598C13.9258 14.0021 13.8013 14.0199 13.5879 13.9132C13.3745 13.8064 12.6868 13.5811 11.8716 12.8543C11.237 12.2886 10.8087 11.5901 10.6842 11.3765C10.5597 11.163 10.6709 11.0475 10.7778 10.9411C10.8738 10.8455 10.9912 10.692 11.0979 10.5674C11.2047 10.4429 11.2402 10.3538 11.3114 10.2115C11.3825 10.0691 11.3469 9.94457 11.2936 9.83779C11.2402 9.73096 10.8134 8.68091 10.6355 8.25376C10.4622 7.83782 10.2863 7.89413 10.1553 7.88756C10.0309 7.8814 9.88852 7.88005 9.74625 7.88005C9.60395 7.88005 9.37272 7.9334 9.17708 8.14701C8.98144 8.36055 8.43006 8.8767 8.43006 9.92667C8.43006 10.9768 9.19488 11.9911 9.30159 12.1335C9.40831 12.2759 10.8066 14.4305 12.9476 15.3547C13.4569 15.5745 13.8544 15.7057 14.1644 15.804C14.6757 15.9664 15.141 15.9435 15.5087 15.8886C15.9188 15.8273 16.7715 15.3725 16.9493 14.8742C17.1272 14.3758 17.1272 13.9487 17.0738 13.8598Z" fill="white"/>
</svg>
